<svg xmlns="http://www.w3.org/2000/svg" viewBox="0 0 181.27 295.04"><defs><style>.cls-1,.cls-3{fill:#fff;}.cls-1{stroke:#e73534;stroke-miterlimit:10;}.cls-2{fill:#f92b2b;}</style></defs><g id="Calque_2" data-name="Calque 2"><g id="Calque_1-2" data-name="Calque 1"><rect class="cls-1" x="0.5" y="0.5" width="180.27" height="294.04" rx="22.51"/><rect x="13.8" y="19.52" width="153.67" height="255.62" rx="17.76"/><polygon class="cls-2" points="41.95 44.08 25.14 44.08 33.21 29.28 41.95 44.08"/><polygon class="cls-2" points="25.14 44.08 41.95 44.08 33.88 58.88 25.14 44.08"/><polygon class="cls-3" points="39.52 39.98 22.7 39.98 30.77 25.18 39.52 39.98"/><polygon class="cls-3" points="22.7 39.98 39.52 39.98 31.44 54.78 22.7 39.98"/><circle class="cls-2" cx="146.26" cy="36.02" r="8.05"/><circle class="cls-2" cx="139.81" cy="47.3" r="8.05"/><circle class="cls-2" cx="152.7" cy="46.49" r="8.05"/><path class="cls-2" d="M155.12,60.19H139s8.05-5.64,8.05-12.89C147.06,47.3,145.45,55.35,155.12,60.19Z"/><circle class="cls-3" cx="143.48" cy="35.22" r="8.32"/><circle class="cls-3" cx="136.82" cy="46.87" r="8.32"/><circle class="cls-3" cx="150.14" cy="46.04" r="8.32"/><path class="cls-3" d="M152.64,60.19H136s8.33-5.83,8.33-13.32C144.32,46.87,142.65,55.19,152.64,60.19Z"/><circle class="cls-2" cx="141.26" cy="246.13" r="7.58"/><circle class="cls-2" cx="155.33" cy="246.13" r="7.58"/><path class="cls-2" d="M133.69,246.13s-1.09,8.65,14.07,22.72c0,0,15.15-15.15,15.15-22.72Z"/><circle class="cls-3" cx="138.3" cy="242.9" r="7.58"/><circle class="cls-3" cx="152.37" cy="242.9" r="7.58"/><path class="cls-3" d="M130.72,242.9s-1.08,8.66,14.07,22.73c0,0,15.15-15.15,15.15-22.73Z"/><circle class="cls-2" cx="44.62" cy="256.27" r="7.52"/><circle class="cls-2" cx="30.66" cy="256.27" r="7.52"/><path class="cls-2" d="M52.13,256.27s1.08-8.58-14-22.54c0,0-15,15-15,22.54Z"/><path class="cls-2" d="M45.31,267.26h-15s7.52-5.26,7.52-12C37.8,255.24,36.3,262.75,45.31,267.26Z"/><circle class="cls-3" cx="42.02" cy="256.24" r="7.52"/><circle class="cls-3" cx="28.06" cy="256.24" r="7.52"/><path class="cls-3" d="M49.53,256.24s1.08-8.59-14-22.55c0,0-15,15-15,22.55Z"/><path class="cls-3" d="M42.71,267.23h-15s7.52-5.27,7.52-12C35.2,255.2,33.7,262.72,42.71,267.23Z"/></g></g></svg>