<svg xmlns="http://www.w3.org/2000/svg" viewBox="0 0 181.27 295.04"><defs><style>.cls-1,.cls-3{fill:#fff;}.cls-1{stroke:#e73534;stroke-miterlimit:10;}.cls-2{fill:#f92b2b;}</style></defs><g id="Calque_2" data-name="Calque 2"><g id="Calque_1-2" data-name="Calque 1"><rect class="cls-1" x="0.5" y="0.5" width="180.27" height="294.04" rx="22.51"/><rect x="13.8" y="19.52" width="153.67" height="255.62" rx="17.76"/><polygon class="cls-2" points="120.39 149.38 103.57 149.38 111.65 134.58 120.39 149.38"/><polygon class="cls-2" points="103.57 149.38 120.39 149.38 112.32 164.18 103.57 149.38"/><polygon class="cls-3" points="117.95 145.28 101.14 145.28 109.21 130.48 117.95 145.28"/><polygon class="cls-3" points="101.14 145.28 117.95 145.28 109.88 160.08 101.14 145.28"/><circle class="cls-2" cx="36.56" cy="141.28" r="7.58"/><circle class="cls-2" cx="50.63" cy="141.28" r="7.58"/><path class="cls-2" d="M29,141.28S27.9,149.94,43.06,164c0,0,15.15-15.15,15.15-22.73Z"/><circle class="cls-3" cx="33.6" cy="138.06" r="7.58"/><circle class="cls-3" cx="47.67" cy="138.06" r="7.58"/><path class="cls-3" d="M26,138.06s-1.08,8.66,14.07,22.73c0,0,15.15-15.15,15.15-22.73Z"/><circle class="cls-2" cx="142.76" cy="139.62" r="8.05"/><circle class="cls-2" cx="136.32" cy="150.89" r="8.05"/><circle class="cls-2" cx="149.21" cy="150.09" r="8.05"/><path class="cls-2" d="M151.62,163.78H135.51s8.06-5.64,8.06-12.89C143.57,150.89,142,159,151.62,163.78Z"/><circle class="cls-3" cx="139.99" cy="138.81" r="8.32"/><circle class="cls-3" cx="133.33" cy="150.46" r="8.32"/><circle class="cls-3" cx="146.65" cy="149.63" r="8.32"/><path class="cls-3" d="M149.15,163.78H132.5s8.32-5.83,8.32-13.32C140.82,150.46,139.16,158.78,149.15,163.78Z"/><circle class="cls-2" cx="86.41" cy="153.06" r="7.52"/><circle class="cls-2" cx="72.45" cy="153.06" r="7.52"/><path class="cls-2" d="M93.92,153.06s1.08-8.59-14-22.54c0,0-15,15-15,22.54Z"/><path class="cls-2" d="M87.1,164.05h-15s7.52-5.26,7.52-12C79.59,152,78.09,159.54,87.1,164.05Z"/><circle class="cls-3" cx="83.81" cy="153.03" r="7.52"/><circle class="cls-3" cx="69.85" cy="153.03" r="7.52"/><path class="cls-3" d="M91.32,153s1.08-8.59-13.95-22.55c0,0-15,15-15,22.55Z"/><path class="cls-3" d="M84.5,164h-15S77,158.75,77,152C77,152,75.48,159.5,84.5,164Z"/></g></g></svg>