<svg xmlns="http://www.w3.org/2000/svg" xmlns:xlink="http://www.w3.org/1999/xlink" viewBox="0 0 111.81 181.75"><defs><style>.cls-1{fill:#010101;}.cls-2{fill:none;stroke:#e73635;stroke-miterlimit:10;}.cls-3{fill:#521818;}.cls-4{fill:url(#Dégradé_sans_nom_11);}.cls-5{fill:url(#Dégradé_sans_nom_4);}.cls-6{fill:#852524;}.cls-7{fill:url(#Dégradé_sans_nom_4-2);}.cls-8{fill:url(#Dégradé_sans_nom_10);}.cls-9{fill:url(#Dégradé_sans_nom_4-3);}.cls-10{fill:url(#Dégradé_sans_nom_4-4);}.cls-11{fill:url(#Dégradé_sans_nom_4-5);}.cls-12{fill:url(#Dégradé_sans_nom_4-6);}.cls-13{fill:url(#Dégradé_sans_nom_10-2);}.cls-14{fill:url(#Dégradé_sans_nom_10-3);}.cls-15{fill:url(#Dégradé_sans_nom_10-4);}.cls-16{fill:url(#Dégradé_sans_nom_10-5);}.cls-17{fill:url(#Dégradé_sans_nom_10-6);}.cls-18{fill:url(#Dégradé_sans_nom_10-7);}.cls-19{fill:#fff;}</style><linearGradient id="Dégradé_sans_nom_11" x1="21.72" y1="26.09" x2="21.55" y2="35.82" gradientUnits="userSpaceOnUse"><stop offset="0" stop-color="#e72e47"/><stop offset="0.86" stop-color="#ac191a"/><stop offset="1" stop-color="#a11a16"/></linearGradient><linearGradient id="Dégradé_sans_nom_4" x1="21.72" y1="26.98" x2="21.23" y2="17.36" gradientUnits="userSpaceOnUse"><stop offset="0" stop-color="#e72e47"/><stop offset="1" stop-color="#a11a16"/></linearGradient><linearGradient id="Dégradé_sans_nom_4-2" x1="88.18" y1="155.5" x2="78.63" y2="152.46" xlink:href="#Dégradé_sans_nom_4"/><linearGradient id="Dégradé_sans_nom_10" x1="102.86" y1="152.23" x2="88.48" y2="155.3" gradientUnits="userSpaceOnUse"><stop offset="0" stop-color="#a11a16"/><stop offset="1" stop-color="#e72e47"/></linearGradient><linearGradient id="Dégradé_sans_nom_4-3" x1="20.25" y1="161.92" x2="24.3" y2="161.92" xlink:href="#Dégradé_sans_nom_4"/><linearGradient id="Dégradé_sans_nom_4-4" x1="16.06" y1="151.93" x2="28.51" y2="151.93" xlink:href="#Dégradé_sans_nom_4"/><linearGradient id="Dégradé_sans_nom_4-5" x1="16.03" y1="159.19" x2="28.51" y2="159.19" xlink:href="#Dégradé_sans_nom_4"/><linearGradient id="Dégradé_sans_nom_4-6" x1="86.76" y1="31.94" x2="90.38" y2="31.94" xlink:href="#Dégradé_sans_nom_4"/><linearGradient id="Dégradé_sans_nom_10-2" x1="581.75" y1="-137.53" x2="590.81" y2="-137.53" gradientTransform="translate(-53.74 -559.37) rotate(90)" xlink:href="#Dégradé_sans_nom_10"/><linearGradient id="Dégradé_sans_nom_10-3" x1="581.83" y1="-137.51" x2="590.89" y2="-137.51" gradientTransform="translate(-53.74 -559.37) rotate(90)" xlink:href="#Dégradé_sans_nom_10"/><linearGradient id="Dégradé_sans_nom_10-4" x1="206.75" y1="-222.38" x2="218.52" y2="-222.69" gradientTransform="matrix(0, 1, -1, 0, -136.38, -189.77)" xlink:href="#Dégradé_sans_nom_10"/><linearGradient id="Dégradé_sans_nom_10-5" x1="206.64" y1="-226.94" x2="218.4" y2="-227.25" gradientTransform="matrix(0, 1, -1, 0, -136.38, -189.77)" xlink:href="#Dégradé_sans_nom_10"/><linearGradient id="Dégradé_sans_nom_10-6" x1="156.78" y1="-168" x2="164.81" y2="-168" gradientTransform="translate(-67.88 192.97)" xlink:href="#Dégradé_sans_nom_10"/><linearGradient id="Dégradé_sans_nom_10-7" x1="156.92" y1="-163.39" x2="164.85" y2="-163.39" gradientTransform="translate(-67.88 192.97)" xlink:href="#Dégradé_sans_nom_10"/></defs><g id="Calque_2" data-name="Calque 2"><g id="Calque_1-2" data-name="Calque 1"><rect class="cls-1" x="9.58" y="12.31" width="92.65" height="157.14" rx="17.76"/><rect class="cls-2" x="0.5" y="0.5" width="110.81" height="180.75" rx="22.51"/><polygon class="cls-3" points="21.49 17.33 16.32 26.71 22.43 36.63 27.62 27.55 21.49 17.33"/><polygon class="cls-4" points="21.92 35.77 27.08 26.75 16.34 26.75 21.92 35.77"/><polygon class="cls-5" points="16.34 26.67 27.08 26.67 21.49 17.22 16.34 26.67"/><polygon class="cls-6" points="20.04 19.89 21.49 17.22 26.33 25.4 20.04 19.89"/><polygon class="cls-3" points="88.99 163.94 88.99 150.51 85.21 147.41 82.22 147.81 79.44 151 79.75 155.18 88.99 163.94"/><polygon class="cls-3" points="88.99 163.94 88.99 150.51 92.78 147.41 95.77 147.81 98.55 151 98.24 155.18 88.99 163.94"/><polygon class="cls-7" points="88.25 163.18 88.25 149.75 84.47 146.65 81.48 147.05 78.69 150.24 79.01 154.42 88.25 163.18"/><polygon class="cls-8" points="88.37 163.18 88.37 149.75 92.16 146.65 95.14 147.05 97.93 150.24 97.62 154.42 88.37 163.18"/><polygon class="cls-6" points="89.99 148.42 97.84 151.65 97.93 150.24 95.14 147.05 92.16 146.65 89.99 148.42"/><polygon class="cls-3" points="24.92 151.21 24.92 151.21 23.75 149.17 22.57 147.13 21.39 149.17 20.21 151.21 20.22 151.21 16.03 157.36 18.47 161.65 22.51 161.6 22.63 161.6 26.71 161.6 28.82 157.82 24.92 151.21"/><polygon class="cls-9" points="24.3 163.68 22.27 163.68 20.25 163.68 21.26 161.92 22.27 160.17 23.29 161.92 24.3 163.68"/><polygon class="cls-3" points="20.25 163.68 24.3 163.68 24.51 164.04 20.45 164.04 20.25 163.68"/><polygon class="cls-10" points="24.61 150.61 24.62 150.61 23.45 148.58 22.27 146.55 21.1 148.58 19.93 150.61 19.93 150.61 16.06 157.31 28.48 157.31 24.61 150.61"/><polygon class="cls-11" points="16.03 157.36 16.05 157.4 18.14 161.02 22.22 161.02 22.33 161.02 26.4 161.02 28.5 157.4 28.51 157.38 16.03 157.36"/><polygon class="cls-6" points="28.48 157.31 21.07 148.55 22.27 146.55 28.48 157.31"/><polygon class="cls-12" points="90.38 35.86 88.57 35.86 86.76 35.86 87.68 31.94 88.57 28.02 89.45 31.94 90.38 35.86"/><polygon class="cls-6" points="83.94 31.76 88.19 27.29 83.87 22.9 81.92 22.81 80.41 24.13 80.22 25.55 81.26 26.98 80.22 29.14 80.09 30.29 81.86 31.86 83.94 31.76"/><polygon class="cls-6" points="97.37 25.56 97.18 24.41 95.67 23.09 93.33 22.97 88.95 27.24 93.83 31.94 95.67 32.15 97.18 30.82 97.37 29.41 95.9 27.35 97.37 25.56"/><polygon class="cls-6" points="92.98 21.81 93.25 19.77 91.97 18.43 90.55 18.24 88.34 19.25 86.96 18.24 85.55 18.43 84.22 19.94 84.16 21.41 88.69 26.12 92.98 21.81"/><polygon class="cls-6" points="86.76 35.86 90.38 35.86 90.48 36.17 86.94 36.17 86.76 35.86"/><polygon class="cls-6" points="90.27 35.31 87.64 32.14 88.51 27.87 90.27 35.31"/><polygon class="cls-13" points="87.79 26.9 83.43 22.46 81.48 22.37 79.97 23.7 79.78 25.11 81.25 26.9 87.71 26.9 87.79 26.9"/><polygon class="cls-14" points="81.26 26.98 81.27 26.99 79.8 28.78 79.99 30.2 81.5 31.52 83.52 31.4 87.72 26.98 81.26 26.98"/><polygon class="cls-15" points="88.33 19.26 86.53 17.79 85.12 17.98 83.8 19.49 83.98 21.37 88.3 25.76 88.34 25.71 88.34 19.25 88.33 19.26"/><polygon class="cls-16" points="92.97 19.49 91.65 17.98 90.23 17.79 88.46 19.25 88.46 25.71 92.73 21.37 92.97 19.49"/><polygon class="cls-17" points="96.93 25.44 96.74 24.03 95.23 22.71 93.33 22.97 88.95 27.24 95.46 27.24 96.93 25.44"/><polygon class="cls-18" points="89.1 27.32 89.04 27.32 93.52 31.61 95.27 31.85 96.78 30.53 96.96 29.11 95.5 27.32 89.1 27.32"/><polygon class="cls-3" points="24.7 151.62 24.7 151.62 23.52 149.58 22.34 147.54 21.17 149.58 19.99 151.62 19.99 151.62 15.81 157.76 18.25 162.06 22.29 162.01 22.4 162.01 26.49 162.01 28.59 158.23 24.7 151.62"/><polygon class="cls-19" points="24.08 164.09 22.05 164.09 20.02 164.09 21.04 162.33 22.05 160.58 23.06 162.33 24.08 164.09"/><polygon class="cls-3" points="20.02 164.09 24.08 164.09 24.29 164.45 20.22 164.45 20.02 164.09"/><polygon class="cls-19" points="24.39 151.02 24.4 151.02 23.22 148.99 22.05 146.96 20.88 148.99 19.71 151.02 19.71 151.02 15.84 157.71 28.26 157.71 24.39 151.02"/><polygon class="cls-19" points="15.81 157.76 15.83 157.81 17.92 161.43 21.99 161.43 22.11 161.43 26.18 161.43 28.27 157.81 28.29 157.79 15.81 157.76"/><polygon class="cls-6" points="28.26 157.71 20.85 148.96 22.05 146.96 28.26 157.71"/><polygon class="cls-19" points="90.65 35.98 88.84 35.98 87.03 35.98 87.95 32.06 88.84 28.14 89.72 32.06 90.65 35.98"/><polygon class="cls-6" points="84.21 31.87 88.46 27.41 84.14 23.02 82.19 22.93 80.68 24.25 80.49 25.66 81.53 27.1 80.49 29.25 80.36 30.4 82.13 31.97 84.21 31.87"/><polygon class="cls-6" points="97.64 25.67 97.45 24.52 95.94 23.2 93.61 23.09 89.22 27.35 94.1 32.06 95.94 32.26 97.45 30.94 97.64 29.52 96.17 27.47 97.64 25.67"/><polygon class="cls-6" points="93.25 21.93 93.52 19.89 92.23 18.54 90.82 18.35 88.61 19.36 87.23 18.35 85.82 18.54 84.5 20.05 84.43 21.53 88.96 26.24 93.25 21.93"/><polygon class="cls-6" points="87.03 35.98 90.65 35.98 90.75 36.28 87.21 36.28 87.03 35.98"/><polygon class="cls-6" points="90.54 35.43 87.91 32.25 88.78 27.98 90.54 35.43"/><polygon class="cls-19" points="88.06 27.01 83.7 22.58 81.75 22.49 80.24 23.81 80.06 25.23 81.52 27.01 87.98 27.01 88.06 27.01"/><polygon class="cls-19" points="81.53 27.1 81.54 27.1 80.07 28.89 80.26 30.31 81.77 31.63 83.79 31.52 87.99 27.1 81.53 27.1"/><polygon class="cls-19" points="88.6 19.38 86.8 17.91 85.39 18.1 84.06 19.61 84.25 21.48 88.57 25.87 88.61 25.83 88.61 19.36 88.6 19.38"/><polygon class="cls-19" points="93.24 19.61 91.92 18.1 90.5 17.91 88.73 19.36 88.73 25.83 93 21.48 93.24 19.61"/><polygon class="cls-19" points="97.2 25.56 97.01 24.14 95.5 22.82 93.61 23.09 89.22 27.35 95.73 27.35 97.2 25.56"/><polygon class="cls-19" points="89.37 27.43 89.31 27.43 93.79 31.73 95.54 31.97 97.05 30.64 97.23 29.23 95.77 27.43 89.37 27.43"/></g></g></svg>