<svg xmlns="http://www.w3.org/2000/svg" viewBox="0 0 68.35 72.59"><defs><style>.cls-1{fill:#f92b2b;}.cls-2{fill:#fff;}</style></defs><g id="Calque_2" data-name="Calque 2"><g id="Calque_1-2" data-name="Calque 1"><circle class="cls-1" cx="52.06" cy="48.83" r="16.25"/><circle class="cls-1" cx="21.88" cy="48.83" r="16.25"/><path class="cls-1" d="M68.32,48.83S70.64,30.26,38.13.07c0,0-32.5,32.51-32.5,48.76Z"/><path class="cls-1" d="M53.57,72.59H21.06s16.25-11.37,16.25-26C37.31,46.59,34.06,62.84,53.57,72.59Z"/><circle class="cls-2" cx="46.44" cy="48.76" r="16.25"/><circle class="cls-2" cx="16.25" cy="48.76" r="16.25"/><path class="cls-2" d="M62.69,48.76S65,30.18,32.51,0C32.51,0,0,32.51,0,48.76Z"/><path class="cls-2" d="M47.94,72.52H15.43s16.26-11.38,16.26-26C31.69,46.51,28.44,62.77,47.94,72.52Z"/></g></g></svg>