<svg xmlns="http://www.w3.org/2000/svg" viewBox="0 0 181.27 295.04"><defs><style>.cls-1,.cls-3{fill:#fff;}.cls-1{stroke:#e73534;stroke-miterlimit:10;}.cls-2{fill:#f92b2b;}</style></defs><g id="Calque_2" data-name="Calque 2"><g id="Calque_1-2" data-name="Calque 1"><rect class="cls-1" x="0.5" y="0.5" width="180.27" height="294.04" rx="22.51"/><rect x="16.83" y="13.8" width="150.63" height="262.27" rx="17.76"/><circle class="cls-2" cx="108.78" cy="155.6" r="16.25"/><circle class="cls-2" cx="78.59" cy="155.6" r="16.25"/><path class="cls-2" d="M125,155.6s2.32-18.57-30.18-48.76c0,0-32.51,32.51-32.51,48.76Z"/><path class="cls-2" d="M110.28,179.36H77.77S94,168,94,153.36C94,153.36,90.78,169.61,110.28,179.36Z"/><circle class="cls-3" cx="103.15" cy="155.53" r="16.25"/><circle class="cls-3" cx="72.97" cy="155.53" r="16.25"/><path class="cls-3" d="M119.4,155.53s2.33-18.58-30.18-48.76c0,0-32.51,32.51-32.51,48.76Z"/><path class="cls-3" d="M104.65,179.29H72.15s16.25-11.38,16.25-26C88.4,153.28,85.15,169.54,104.65,179.29Z"/></g></g></svg>