<svg width="350" height="350" viewBox="0 0 350 350" fill="none" xmlns="http://www.w3.org/2000/svg">
<path d="M336.721 241.988C318.982 284.765 284.765 318.982 241.988 336.721L228.772 304.852C212.254 311.702 194.114 315.5 175 315.5C155.886 315.5 137.746 311.702 121.227 304.852L108.012 336.721C65.235 318.982 31.018 284.765 13.2791 241.988L45.1476 228.772C38.2978 212.254 34.5 194.114 34.5 175C34.5 155.886 38.2978 137.746 45.1476 121.227L13.2791 108.012C31.018 65.235 65.2351 31.018 108.012 13.2791L121.227 45.1476C137.746 38.2978 155.886 34.5 175 34.5C194.114 34.5 212.254 38.2978 228.773 45.1476L241.988 13.2791C284.765 31.018 318.982 65.2351 336.721 108.012L304.852 121.227C311.702 137.746 315.5 155.886 315.5 175C315.5 194.114 311.702 212.254 304.852 228.773L336.721 241.988Z" fill="black" stroke="#ED0202" stroke-width="69" stroke-dasharray="105 105"/>
<ellipse cx="174.686" cy="175.588" rx="110.052" ry="110.052" stroke="black" stroke-width="19" stroke-dasharray="63 63"/>
<ellipse cx="174.685" cy="175.588" rx="110.052" ry="110.052" transform="rotate(25.0873 174.685 175.588)" stroke="white" stroke-width="19" stroke-dasharray="35 35"/>
</svg>
